<?xml version="1.0" standalone="no"?>
<!DOCTYPE svg PUBLIC "-//W3C//DTD SVG 20010904//EN"
 "http://www.w3.org/TR/2001/REC-SVG-20010904/DTD/svg10.dtd">
<svg version="1.0" xmlns="http://www.w3.org/2000/svg"
 width="500.000000pt" height="500.000000pt" viewBox="0 0 500.000000 500.000000"
 preserveAspectRatio="xMidYMid meet">
<metadata>
Created by potrace 1.14, written by Peter Selinger 2001-2017
</metadata>
<g transform="translate(0.000000,500.000000) scale(0.100000,-0.100000)"
fill="#000000" stroke="none">
<path d="M0 2500 l0 -2500 2500 0 2500 0 0 2500 0 2500 -2500 0 -2500 0 0
-2500z m2554 1957 c27 -27 41 -85 52 -202 4 -44 10 -87 15 -96 6 -11 39 -18
139 -27 369 -35 615 -114 855 -275 138 -92 292 -281 369 -450 98 -213 121
-364 113 -715 -5 -250 -15 -305 -83 -472 -138 -341 -435 -581 -811 -657 -132
-26 -475 -24 -633 5 -75 14 -118 17 -125 11 -5 -5 -13 -89 -16 -187 -8 -197
-34 -375 -80 -538 -72 -258 -151 -346 -296 -331 -117 12 -261 114 -298 211
-13 34 -16 64 -13 116 5 61 14 88 66 193 69 138 96 222 117 352 15 94 40 374
33 379 -69 52 -150 121 -173 147 -68 77 -80 155 -34 213 24 31 57 33 155 10
37 -8 70 -11 74 -7 4 4 17 150 29 323 12 173 40 538 62 810 22 272 38 513 37
535 l-3 40 -40 -3 c-64 -5 -277 -79 -385 -133 -107 -54 -201 -123 -251 -185
-49 -61 -96 -168 -109 -247 -28 -175 -60 -249 -123 -287 -65 -40 -179 -17
-239 46 -100 107 -63 355 79 527 196 235 518 401 972 501 90 20 165 37 167 39
1 1 27 52 58 113 102 203 248 313 320 241z"/>
<path d="M2612 3854 c-12 -8 -26 -31 -31 -52 -34 -126 -136 -1601 -136 -1956
0 -15 14 -23 65 -38 164 -47 377 -60 534 -33 216 38 387 175 497 400 73 151
83 203 83 445 0 113 -6 248 -13 300 -33 240 -135 438 -320 620 -155 152 -306
238 -511 293 -143 38 -144 38 -168 21z"/>
</g>
</svg>
