<?xml version="1.0" standalone="no"?>
<!DOCTYPE svg PUBLIC "-//W3C//DTD SVG 20010904//EN"
 "http://www.w3.org/TR/2001/REC-SVG-20010904/DTD/svg10.dtd">
<svg version="1.0" xmlns="http://www.w3.org/2000/svg"
 width="500.000000pt" height="500.000000pt" viewBox="0 0 500.000000 500.000000"
 preserveAspectRatio="xMidYMid meet">
<metadata>
Created by potrace 1.14, written by Peter Selinger 2001-2017
</metadata>
<g transform="translate(0.000000,500.000000) scale(0.100000,-0.100000)"
fill="#000000" stroke="none">
<path d="M0 2500 l0 -2500 2500 0 2500 0 0 2500 0 2500 -2500 0 -2500 0 0
-2500z m2554 1957 c27 -27 41 -85 52 -202 4 -44 10 -87 15 -96 6 -11 39 -18
139 -27 164 -16 314 -43 455 -82 125 -35 318 -131 426 -211 209 -154 372 -416
436 -699 20 -88 29 -505 14 -631 -27 -231 -145 -479 -302 -639 -144 -146 -366
-263 -586 -307 -132 -26 -475 -24 -633 5 -75 14 -118 17 -125 11 -5 -5 -13
-89 -16 -187 -8 -197 -34 -375 -80 -538 -72 -258 -151 -346 -296 -331 -117 12
-261 114 -298 211 -13 34 -16 64 -13 116 5 61 14 88 66 193 69 138 96 222 117
352 15 94 40 374 33 379 -69 52 -150 121 -173 147 -68 77 -80 155 -34 213 24
31 57 33 155 10 37 -8 70 -11 74 -7 4 4 17 150 29 323 12 173 40 538 62 810
22 272 38 513 37 535 l-3 40 -40 -3 c-67 -6 -282 -81 -397 -139 -211 -107
-319 -245 -353 -449 -36 -215 -85 -284 -200 -284 -138 0 -225 108 -212 265 14
156 73 274 203 400 214 208 489 338 903 429 90 20 165 37 167 39 1 1 27 52 58
114 102 204 247 312 320 240z"/>
<path d="M2612 3854 c-12 -8 -26 -31 -31 -52 -34 -126 -136 -1601 -136 -1956
0 -15 14 -23 65 -38 220 -63 493 -63 662 2 82 30 192 113 261 195 69 82 149
238 174 340 21 87 24 430 4 575 -33 240 -135 438 -320 620 -155 152 -306 238
-511 293 -143 38 -144 38 -168 21z"/>
</g>
</svg>
